<svg id="Layer_1" data-name="Layer 1" xmlns="http://www.w3.org/2000/svg" xmlns:xlink="http://www.w3.org/1999/xlink" viewBox="0 0 275.8 220.4"><defs><clipPath id="clip-path" transform="translate(-7.1 -35.3)"><polygon points="73.8 161.5 144.6 102.2 216.6 161.9 216.6 70.1 145.2 35.3 73.8 70.1 73.8 161.5" fill="none"/></clipPath></defs><path d="M282.9,235.5s-4.2-1.4-11.5-4c-3.6-1.4-8.2-2.5-13.3-4.2s-11-3-17.4-4.6c-1.6-.4-3.2-.8-4.9-1.2s-3.4-.7-5.2-1c-3.5-.7-7.1-1.4-10.8-2.2s-7.6-1.2-11.5-1.8-7.9-1.3-12-1.6-8.2-.9-12.4-1.4-8.5-.6-12.8-.9c-2.2-.1-4.3-.3-6.5-.4s-4.4-.1-6.5-.1l-13.1-.3-13.2.3c-2.2.1-4.4.1-6.6.2s-4.3.3-6.4.4c-4.3.3-8.5.5-12.7.9s-8.4.9-12.4,1.4c-4.1.3-8.1,1.1-12,1.6s-7.8,1.1-11.5,1.8-7.3,1.5-10.8,2.2c-1.7.3-3.5.7-5.2,1s-3.3.8-4.9,1.2c-6.4,1.6-12.3,3-17.4,4.6s-9.7,2.7-13.3,4.2c-7.3,2.6-11.5,4-11.5,4s3.9-2.1,10.8-5.6c3.4-1.9,7.8-3.6,12.8-5.8,1.3-.5,2.5-1.1,3.9-1.6.7-.3,1.3-.6,2-.9a18,18,0,0,0,2.1-.8c2.9-1,5.9-2,9.1-3.1,1.6-.5,3.2-1.1,4.9-1.7l5.1-1.5c3.5-1,7.1-1.9,10.8-2.9s7.6-1.7,11.6-2.5,8-1.7,12.2-2.3,8.4-1.2,12.7-1.9c4.3-.5,8.7-.8,13.2-1.2l6.7-.6c2.2-.1,4.4-.2,6.6-.2,4.5-.1,8.9-.2,13.4-.4,4.5.1,9,.3,13.5.4,2.2.1,4.5.1,6.7.2l6.6.6c4.4.4,8.8.7,13.1,1.2s8.5,1.3,12.7,1.9a119.52,119.52,0,0,1,12.2,2.3c4,.9,7.9,1.6,11.6,2.5s7.3,2,10.8,2.9c1.7.5,3.5,1,5.1,1.5s3.3,1.1,4.9,1.7c3.2,1.1,6.2,2.1,9.1,3.1.7.3,1.4.5,2.1.8s1.4.6,2,.9c1.3.6,2.6,1.1,3.9,1.6a136.82,136.82,0,0,1,12.8,5.8C279,233.4,282.9,235.5,282.9,235.5Z" transform="translate(-7.1 -35.3)" fill="#181c21"/><path d="M118.8,193.6h12V183.5h-12Zm19.9,0h12V183.5h-12ZM279,216.2l-51.2-42.5h0l-24.7-20.5h0l-48.9-40.6-9.6-8-9.6,8L10.4,216.2l134.3-78.5ZM144.9,113.3v17L60.3,182Zm-26.1,64.4h12V167.6h-12Zm19.9,0h12V167.6h-12Zm19.9,0h12V167.6h-12Zm0,15.9h12V183.5h-12Zm44.6-40.4h0l24.7,20.5h0Z" transform="translate(-7.1 -35.3)" fill="#181c21"/><g clip-path="url(#clip-path)"><path d="M93.5,60.4,73.7,70V171.8c6.5-1,13.1-1.8,19.8-2.5Z" transform="translate(-7.1 -35.3)"/><path d="M173.5,167.4c5,.3,10.1.7,15,1.1V56.4l-15-7.3Z" transform="translate(-7.1 -35.3)"/><path d="M101.8,168.6c5-.4,10-.8,15-1.1V49.1l-15,7.3Z" transform="translate(-7.1 -35.3)"/><path d="M196.8,60.4V169.3c6.7.7,13.3,1.6,19.8,2.5V70.1Z" transform="translate(-7.1 -35.3)"/><path d="M145.2,35.3l-20.1,9.8v122l10.5-.3V138.5l9.6-4.7,9.6,4.7v28.3l10.4.3V45.1Z" transform="translate(-7.1 -35.3)"/></g><path d="M104.3,247h-2.1a3.43,3.43,0,0,1-1.9-.7L98.6,248c-.9.8-1.5,1.2-1.9,1.2a7.47,7.47,0,0,1-2.8-1.5,6.85,6.85,0,0,0-3.3-1.5,2.23,2.23,0,0,0-1.9.7c.1.9.3,1.7.4,2.5a14.87,14.87,0,0,1,.3,2.5,3.24,3.24,0,0,1-.9,2.1,24.55,24.55,0,0,1-1.9,1.7h-.1l-.1-.1-2.3-15v-.2a2.89,2.89,0,0,1,1.6-2.5,5.58,5.58,0,0,1,3.3-1,14.92,14.92,0,0,1,2.1.2,23.35,23.35,0,0,1,2.2-3c1.2-1.3,2.2-1.9,3.2-1.9a3.9,3.9,0,0,1,3.8,2.1,18.23,18.23,0,0,1,1.2,3.9h2.9l-.1,8.8Zm-6.4-6.6c0-2.3-.6-3.5-1.7-3.5a4.17,4.17,0,0,0-2.3,1.3l3.9,3.3A3.75,3.75,0,0,0,97.9,240.4Z" transform="translate(-7.1 -35.3)"/><path d="M118.3,246c0,.6-.4,1-1.2,1H101.9v-8.7h12.5a8.54,8.54,0,0,0-3.1-2.6,28.75,28.75,0,0,0-4-1.8l-.1.1.2.7v.1h-.1a18.14,18.14,0,0,1-2-1c-1-.6-1.6-1-1.6-1.2l-.4-4.2a39,39,0,0,1,7.1-2.4,31,31,0,0,1,7.5-1l-2.2,3.5a38.24,38.24,0,0,0-9.4,1.4l3.6,1.5a16.69,16.69,0,0,1,4.6,2.8,10.14,10.14,0,0,1,3.5,5.6A40.89,40.89,0,0,1,118.3,246Z" transform="translate(-7.1 -35.3)"/><path d="M132,244.6a8.8,8.8,0,0,1-1.8,5.1,8,8,0,0,1-4.9,3.3H125a14.82,14.82,0,0,1-4.6-1.3c-2.3-.9-3.4-1.6-3.5-2.1l.2-.2h1.7a12.63,12.63,0,0,0,5.7-1.7,13.24,13.24,0,0,0,4.3-3.6,16.07,16.07,0,0,0-4.5-4.7c.8-1,2.1-2.4,3.7-4.3a10.55,10.55,0,0,1,2.8,4.5A13.33,13.33,0,0,1,132,244.6Z" transform="translate(-7.1 -35.3)"/><path d="M141,247h-2.9a3.21,3.21,0,0,1-2.2-1,2.83,2.83,0,0,1-.9-2l-.6-16.3,3.9-2.4.3,11.2c0,.9.2,1.4.5,1.6a3.82,3.82,0,0,0,1.9.3V247Z" transform="translate(-7.1 -35.3)"/><path d="M162.4,247h-6.8a2.84,2.84,0,0,1-.9,1,2.18,2.18,0,0,1-1.4.5q-.9,0-5.1-2.4a6.57,6.57,0,0,1-2.2.8h-6.8v-8.7h6.1a7.85,7.85,0,0,0,2.4-2c1.2-1.4,2-2.2,2.3-2.5a4.36,4.36,0,0,1,2.9-1.2,3.76,3.76,0,0,1,2.8,1.1,17,17,0,0,1,1.4,2.4,5.09,5.09,0,0,0,1.7,2.2h3.7l-.1,8.8Zm-7.9-6.3v-.3a5.85,5.85,0,0,0-.5-2.2,1.86,1.86,0,0,0-1.8-1.4,2.66,2.66,0,0,0-2,1.4A35.73,35.73,0,0,0,154.5,240.7Z" transform="translate(-7.1 -35.3)"/><path d="M178.3,238.5a26.68,26.68,0,0,1-.9,2.6l-2.1,5.9H161.2v-8.7h6.3a4.32,4.32,0,0,1-1.5-3c0-.4.4-1,1.2-1.6a9.27,9.27,0,0,1,5.8-2,4.05,4.05,0,0,1,1.2.3,3.92,3.92,0,0,1,2.1,1.7,4.75,4.75,0,0,1,.6,2.4c0,.4-.1.7-.3.7a5.88,5.88,0,0,0-1.6-1,8.75,8.75,0,0,0-2-.2,3.74,3.74,0,0,0-2,.4,2.65,2.65,0,0,0,1.3,1.6,4.76,4.76,0,0,0,1.8.8H178a.37.37,0,0,1,.3.1Z" transform="translate(-7.1 -35.3)"/><path d="M187.2,241.3a7.67,7.67,0,0,1-1.4,4.4,14.42,14.42,0,0,1-3,2.7L181.3,228l4.9-3.1Z" transform="translate(-7.1 -35.3)"/></svg>