<svg width="16" height="21" viewBox="0 0 16 21" fill="none" xmlns="http://www.w3.org/2000/svg">
<g id="6330643_accept_check_list_lists_orders_icon">
<path id="Path 590" d="M14.3712 3.13618H11.811V3.63011C11.811 3.72876 11.7718 3.82337 11.702 3.89312C11.6323 3.96288 11.5376 4.00207 11.439 4.00207H4.83069C4.73204 4.00207 4.63743 3.96288 4.56768 3.89312C4.49792 3.82337 4.45873 3.72876 4.45873 3.63011V3.13618H1.8985C1.66328 3.13327 1.43654 3.22386 1.26807 3.38802C1.0996 3.55219 1.00318 3.77652 1 4.01173V19.1244C1.00318 19.3596 1.0996 19.5839 1.26807 19.7481C1.43654 19.9122 1.66328 20.0028 1.8985 19.9999H14.3712C14.6064 20.0028 14.8332 19.9122 15.0016 19.7481C15.1701 19.5839 15.2665 19.3596 15.2697 19.1244V4.01173C15.2665 3.77652 15.1701 3.55219 15.0016 3.38802C14.8332 3.22386 14.6064 3.13327 14.3712 3.13618V3.13618Z" stroke="black" stroke-opacity="0.5" stroke-miterlimit="10"/>
<path id="Path 591" d="M10.8027 2.27151H8.6482V2.11089C8.65236 1.86653 8.5746 1.62781 8.42729 1.43279C8.27999 1.23777 8.07164 1.09769 7.83545 1.03487C7.67754 0.993685 7.51235 0.988916 7.35233 1.02092C7.19231 1.05292 7.04165 1.12086 6.91174 1.21961C6.78182 1.31836 6.67603 1.44533 6.60236 1.59094C6.5287 1.73656 6.48908 1.897 6.48649 2.06017V2.27151H4.33082C4.2731 2.27151 4.21593 2.28288 4.1626 2.30497C4.10927 2.32706 4.06081 2.35944 4.01999 2.40026C3.97917 2.44108 3.94679 2.48954 3.9247 2.54287C3.90261 2.59621 3.89124 2.65337 3.89124 2.7111V3.55646C3.89124 3.61419 3.90261 3.67135 3.9247 3.72468C3.94679 3.77801 3.97917 3.82647 4.01999 3.86729C4.06081 3.90811 4.10927 3.94049 4.1626 3.96258C4.21593 3.98468 4.2731 3.99605 4.33082 3.99605H10.8027C10.9192 3.99605 11.0311 3.94973 11.1135 3.86729C11.1959 3.78485 11.2423 3.67304 11.2423 3.55646V2.7111C11.2423 2.59451 11.1959 2.4827 11.1135 2.40026C11.0311 2.31782 10.9192 2.27151 10.8027 2.27151V2.27151Z" stroke="black" stroke-opacity="0.5" stroke-miterlimit="10" stroke-linecap="round"/>
<path id="Path 592" d="M4.40662 8.1637H12.19" stroke="black" stroke-opacity="0.5" stroke-miterlimit="10" stroke-linecap="round"/>
<path id="Path 594" d="M4.40662 11.6237H12.19" stroke="black" stroke-opacity="0.5" stroke-miterlimit="10" stroke-linecap="round"/>
<path id="Path 596" d="M4.40662 15.0823H12.19" stroke="black" stroke-opacity="0.5" stroke-miterlimit="10" stroke-linecap="round"/>
</g>
</svg>
